<svg width="287" height="50" viewBox="0 0 287 50" fill="none" xmlns="http://www.w3.org/2000/svg">
<path d="M76.3497 6.85913C64.873 6.80337 53.9731 8.41684 43.5276 10.5598C33.0272 12.7141 23.7094 15.3689 15.3471 19.0946C9.46024 21.7174 5.06523 24.7858 2.82075 28.4897C0.866907 31.714 -0.0503805 35.2564 2.84958 38.4311C6.01365 41.8948 13.025 44.4902 20.1039 46.01C31.5969 48.4774 44.3113 49.1027 56.8035 48.9869C73.25 48.8345 89.6864 47.9587 106.087 47.4097C128.013 46.6757 149.93 45.4316 171.688 43.9685C192.419 42.5744 213.191 40.9711 233.527 38.5813C246.655 37.0384 259.364 35.0785 271.322 32.0402C276.888 30.626 283.783 28.4882 285.621 25.4172C286.538 23.8845 285.622 22.0198 284.655 20.549C283.341 18.5501 280.713 16.7102 277.895 15.1208C270.425 10.9084 260.075 8.25636 249.484 6.19683C242.076 4.75634 234.332 3.47397 226.521 2.61221C216.182 1.47163 205.363 1.16157 194.78 1.02815C156.692 0.547962 86.9351 6.19669 56.8035 19.0948" stroke="#1597CF" stroke-width="2" stroke-linecap="round"/>
</svg>
