<svg width="37" height="37" viewBox="0 0 37 37" fill="none" xmlns="http://www.w3.org/2000/svg">
<path opacity="0.25" fill-rule="evenodd" clip-rule="evenodd" d="M18.5 35.7983C28.165 35.7983 36 28.0085 36 18.3992C36 8.78987 28.165 1 18.5 1C8.83502 1 1 8.78987 1 18.3992C1 28.0085 8.83502 35.7983 18.5 35.7983Z" stroke="white" stroke-width="1.5"/>
<path d="M20.0932 13.9456H21.7015C21.8495 13.9456 21.9696 13.8331 21.9696 13.6945V12.1877C21.9696 12.049 21.8495 11.9365 21.7015 11.9365H20.0932C18.4676 11.9365 17.1445 13.1756 17.1445 14.6991V16.457H15.2681C15.1201 16.457 15 16.5695 15 16.7082V18.215C15 18.3536 15.1201 18.4661 15.2681 18.4661H17.1445V23.7401C17.1445 23.8787 17.2646 23.9912 17.4126 23.9912H19.0209C19.1689 23.9912 19.289 23.8787 19.289 23.7401V18.4661H21.1654C21.2807 18.4661 21.3831 18.3968 21.4201 18.2944L21.9562 16.7875C21.9835 16.7112 21.9696 16.6268 21.9192 16.561C21.8683 16.4957 21.7879 16.457 21.7015 16.457H19.289V14.6991C19.289 14.2837 19.6498 13.9456 20.0932 13.9456Z" fill="white"/>
</svg>
