<svg width="37" height="37" viewBox="0 0 37 37" fill="none" xmlns="http://www.w3.org/2000/svg">
<path opacity="0.25" fill-rule="evenodd" clip-rule="evenodd" d="M18.5 35.7983C28.165 35.7983 36 28.0085 36 18.3992C36 8.78987 28.165 1 18.5 1C8.83502 1 1 8.78987 1 18.3992C1 28.0085 8.83502 35.7983 18.5 35.7983Z" stroke="white" stroke-width="1.5"/>
<path d="M14.4835 14.8867C15.3028 14.8867 15.967 14.2263 15.967 13.4116C15.967 12.5969 15.3028 11.9365 14.4835 11.9365C13.6642 11.9365 13 12.5969 13 13.4116C13 14.2263 13.6642 14.8867 14.4835 14.8867Z" fill="white"/>
<path d="M15.7198 15.8721H13.2473C13.1108 15.8721 13 15.9822 13 16.1179V23.4925C13 23.6282 13.1108 23.7383 13.2473 23.7383H15.7198C15.8563 23.7383 15.967 23.6282 15.967 23.4925V16.1179C15.967 15.9822 15.8563 15.8721 15.7198 15.8721Z" fill="white"/>
<path d="M23.088 15.4635C22.0312 15.1036 20.7094 15.4197 19.9167 15.9866C19.8895 15.8809 19.7926 15.8022 19.6773 15.8022H17.2048C17.0683 15.8022 16.9575 15.9124 16.9575 16.0481V23.4231C16.9575 23.5588 17.0683 23.6689 17.2048 23.6689H19.6773C19.8138 23.6689 19.9246 23.5588 19.9246 23.4231V18.1229C20.3242 17.7807 20.839 17.6716 21.2603 17.8496C21.6688 18.0211 21.9027 18.44 21.9027 18.9981V23.4231C21.9027 23.5588 22.0134 23.6689 22.1499 23.6689H24.6225C24.759 23.6689 24.8698 23.5588 24.8698 23.4231V18.503C24.8416 16.4827 23.8857 15.7349 23.088 15.4635Z" fill="white"/>
</svg>
