<svg width="74" height="74" viewBox="0 0 74 74" fill="none" xmlns="http://www.w3.org/2000/svg">
<g filter="url(#filter0_d_8_14)">
<circle cx="33" cy="33" r="25" fill="white"/>
</g>
<path d="M38.7333 31.2666L32.0728 26.8249C31.7588 26.6154 31.3937 26.4951 31.0166 26.477C30.6395 26.4589 30.2646 26.5436 29.9319 26.722C29.5992 26.9004 29.3213 27.1659 29.1277 27.4901C28.9342 27.8142 28.8324 28.1849 28.8333 28.5624V37.4437C28.8332 37.8208 28.9355 38.191 29.1294 38.5145C29.3232 38.8381 29.6012 39.103 29.9337 39.2809C30.2663 39.4588 30.6409 39.5432 31.0177 39.5249C31.3944 39.5066 31.7591 39.3863 32.0728 39.177L38.7333 34.7353C39.0186 34.5451 39.2525 34.2873 39.4143 33.985C39.5761 33.6826 39.6608 33.345 39.6608 33.002C39.6608 32.6591 39.5761 32.3214 39.4143 32.0191C39.2525 31.7167 39.0186 31.4589 38.7333 31.2687V31.2666Z" fill="black" stroke="black" stroke-width="2" stroke-linecap="round" stroke-linejoin="round"/>
<defs>
<filter id="filter0_d_8_14" x="0" y="0" width="74" height="74" filterUnits="userSpaceOnUse" color-interpolation-filters="sRGB">
<feFlood flood-opacity="0" result="BackgroundImageFix"/>
<feColorMatrix in="SourceAlpha" type="matrix" values="0 0 0 0 0 0 0 0 0 0 0 0 0 0 0 0 0 0 127 0" result="hardAlpha"/>
<feMorphology radius="2" operator="dilate" in="SourceAlpha" result="effect1_dropShadow_8_14"/>
<feOffset dx="4" dy="4"/>
<feGaussianBlur stdDeviation="5"/>
<feComposite in2="hardAlpha" operator="out"/>
<feColorMatrix type="matrix" values="0 0 0 0 0 0 0 0 0 0 0 0 0 0 0 0 0 0 0.05 0"/>
<feBlend mode="normal" in2="BackgroundImageFix" result="effect1_dropShadow_8_14"/>
<feBlend mode="normal" in="SourceGraphic" in2="effect1_dropShadow_8_14" result="shape"/>
</filter>
</defs>
</svg>
