<svg width="37" height="37" viewBox="0 0 37 37" fill="none" xmlns="http://www.w3.org/2000/svg">
<path opacity="0.25" fill-rule="evenodd" clip-rule="evenodd" d="M18.5 35.7983C28.165 35.7983 36 28.0085 36 18.3992C36 8.78987 28.165 1 18.5 1C8.83502 1 1 8.78987 1 18.3992C1 28.0085 8.83502 35.7983 18.5 35.7983Z" stroke="white" stroke-width="1.5"/>
<path d="M24.2202 15.1827C24.139 15.0914 24.0081 15.0685 23.9007 15.1248C23.8339 15.1597 23.7083 15.2056 23.5593 15.251C23.7474 14.9952 23.8986 14.7089 23.9654 14.4515C23.9942 14.3406 23.952 14.2237 23.8601 14.1576C23.7682 14.092 23.6458 14.092 23.5539 14.1576C23.4091 14.2608 22.7102 14.5712 22.2683 14.6718C21.2696 13.7772 20.1074 13.6843 18.8993 14.4056C17.9171 14.992 17.7034 16.1843 17.7451 16.9111C15.4971 16.6897 14.0998 15.4756 13.3132 14.4707C13.2582 14.4002 13.1695 14.363 13.0861 14.3685C12.9985 14.375 12.9194 14.4248 12.8745 14.5018C12.5026 15.1439 12.3995 15.8537 12.5775 16.5548C12.6747 16.9373 12.8446 17.2744 13.0418 17.5476C12.9472 17.5001 12.8558 17.4405 12.7698 17.3695C12.6907 17.3028 12.5801 17.2903 12.4866 17.3345C12.3936 17.3799 12.3343 17.4761 12.3343 17.5815C12.3343 18.7853 13.0706 19.5886 13.7583 20.0082C13.6472 19.9946 13.5313 19.9695 13.4142 19.9328C13.3138 19.9017 13.2048 19.9328 13.1353 20.0137C13.0658 20.094 13.0493 20.2088 13.0926 20.3066C13.4789 21.1804 14.2109 21.7814 15.1166 21.9995C14.3258 22.4743 13.2673 22.7071 12.298 22.5929C12.1724 22.5749 12.0527 22.6563 12.0132 22.7798C11.9736 22.9033 12.0255 23.0388 12.1361 23.1022C13.6066 23.9464 14.936 24.248 16.0849 24.248C17.7568 24.248 19.0473 23.6098 19.8328 23.0759C21.9504 21.6388 23.2702 19.0585 23.0864 16.7499C23.4257 16.4936 23.9333 16.0204 24.248 15.5116C24.3132 15.4089 24.3015 15.2734 24.2202 15.1827Z" fill="white"/>
</svg>
